HIERARCHY
ROOT Hips
{
	OFFSET -3.958830 18.904000 13.208200
	CHANNELS 6 Xposition Yposition Zposition Zrotation Yrotation Xrotation 
	JOINT LHipJoint
	{
		OFFSET 0.000000 0.000000 0.000000
		CHANNELS 3 Zrotation Yrotation Xrotation
		JOINT LeftUpLeg
		{
			OFFSET 1.800000 -1.400000 0.085000
			CHANNELS 3 Zrotation Yrotation Xrotation
			JOINT LeftLeg
			{
				OFFSET 2.215000 -6.000000 0.000000
				CHANNELS 3 Zrotation Yrotation Xrotation
				JOINT LeftFoot
				{
					OFFSET 2.500000 -6.900000 0.000000
					CHANNELS 3 Zrotation Yrotation Xrotation
					JOINT LeftToeBase
					{
						OFFSET 0.200000 -0.500000 1.950000
						CHANNELS 3 Zrotation Yrotation Xrotation
						End Site
						{
							OFFSET 0.000000 0.000000 0.000000
						}
					}
				}
			}
		}
	}
	JOINT RHipJoint
	{
		OFFSET 0.000000 0.000000 0.000000
		CHANNELS 3 Zrotation Yrotation Xrotation
		JOINT RightUpLeg
		{
			OFFSET -1.800000 -1.400000 0.085000
			CHANNELS 3 Zrotation Yrotation Xrotation
			JOINT RightLeg
			{
				OFFSET -2.215000 -6.000000 0.000000
				CHANNELS 3 Zrotation Yrotation Xrotation
				JOINT RightFoot
				{
					OFFSET -2.500000 -6.900000 0.000000
					CHANNELS 3 Zrotation Yrotation Xrotation
					JOINT RightToeBase
					{
						OFFSET -0.200000 -0.500000 1.950000
						CHANNELS 3 Zrotation Yrotation Xrotation
						End Site
						{
							OFFSET 0.000000 0.000000 0.000000
						}
					}
				}
			}
		}
	}
	JOINT LowerBack
	{
		OFFSET 0.000000 0.000000 0.000000
		CHANNELS 3 Zrotation Yrotation Xrotation
		JOINT Spine
		{
			OFFSET -0.087000 1.940000 -0.288900
			CHANNELS 3 Zrotation Yrotation Xrotation
			JOINT Spine1
			{
				OFFSET 0.000000 1.950000 0.060000
				CHANNELS 3 Zrotation Yrotation Xrotation
				JOINT Neck
				{
					OFFSET 0.000000 0.000000 0.000000
					CHANNELS 3 Zrotation Yrotation Xrotation
					JOINT Neck1
					{
						OFFSET 0.000000 1.600000 0.340000
						CHANNELS 3 Zrotation Yrotation Xrotation
						JOINT Head
						{
							OFFSET 0.000000 1.667000 -0.240000
							CHANNELS 3 Zrotation Yrotation Xrotation
							End Site
							{
								OFFSET 0.000000 0.000000 0.000000
							}
						}
					}
				}
				JOINT LeftShoulder
				{
					OFFSET 0.000000 0.000000 0.000000
					CHANNELS 3 Zrotation Yrotation Xrotation
					JOINT LeftArm
					{
						OFFSET 2.700000 1.550000 -0.730000
						CHANNELS 3 Zrotation Yrotation Xrotation
						JOINT LeftForeArm
						{
							OFFSET 5.450000 0.000000 0.000000
							CHANNELS 3 Zrotation Yrotation Xrotation
							JOINT LeftHand
							{
								OFFSET 3.450000 0.000000 0.000000
								CHANNELS 3 Zrotation Yrotation Xrotation
								JOINT LeftHandIndex1
								{
									OFFSET 0.750000 0.000000 0.000000
									CHANNELS 3 Zrotation Yrotation Xrotation
									End Site
									{
										OFFSET 0.000000 0.000000 0.000000
									}
								}
							}
						}
					}
				}
				JOINT RightShoulder
				{
					OFFSET 0.000000 0.000000 0.000000
					CHANNELS 3 Zrotation Yrotation Xrotation
					JOINT RightArm
					{
						OFFSET -2.700000 1.550000 -0.730000
						CHANNELS 3 Zrotation Yrotation Xrotation
						JOINT RightForeArm
						{
							OFFSET -5.450000 0.000000 0.000000
							CHANNELS 3 Zrotation Yrotation Xrotation
							JOINT RightHand
							{
								OFFSET -3.450000 0.000000 0.000000
								CHANNELS 3 Zrotation Yrotation Xrotation
								JOINT RightHandIndex1
								{
									OFFSET -0.750000 0.000000 0.000000
									CHANNELS 3 Zrotation Yrotation Xrotation
									End Site
									{
										OFFSET 0.000000 0.000000 0.000000
									}
								}
							}
						}
					}
				}
			}
		}
	}
}
MOTION
Frames: 10
Frame Time: 0.016667
-1.384730 15.136450 -1.552490 -11.385444 -36.310684 6.384899 -15.733210 11.092390 5.108545 10.619187 -7.628624 -46.315054 -9.153569 14.105786 46.273808 -0.429240 9.498674 1.170175 1.297210 0.771690 0.874150 18.092631 -8.645761 3.401850 -13.622497 7.892462 -21.325531 34.806633 -22.656735 38.827682 -1.838299 -9.610113 1.517341 0.729000 0.125690 0.064240 -2.898831 -2.454145 -8.744912 -1.581075 6.710093 26.109767 0.969926 8.507725 2.134495 -0.923348 -6.247109 -4.656106 -10.931929 6.739562 22.950173 3.568240 4.282550 -24.013260 -30.064646 -1.293192 -1.490995 -25.362898 -3.911130 -1.734541 -172.696856 -55.769027 153.866847 -3.527857 3.414571 0.908960 0.074160 -0.107230 0.448640 31.005803 8.734031 3.653336 25.192266 -0.181812 -5.363985 31.768035 27.325974 4.997023 1.313251 -1.761459 -0.394140 0.537210 -0.323520 -0.595800 
-1.405350 15.090590 -1.545770 -11.329564 -36.183748 5.345875 -15.761557 11.125780 5.100812 10.551553 -7.929703 -46.075160 -8.890728 14.355951 47.503823 -0.352121 9.702075 1.110716 1.242740 0.703400 0.849850 18.065870 -8.492090 3.499915 -15.014834 7.942986 -21.654329 36.631502 -24.474492 40.105781 -1.958767 -10.064331 1.390093 0.675540 0.120130 0.046780 -2.816335 -2.740939 -8.845725 -2.315873 6.615691 28.016889 1.314241 8.254173 1.407879 -0.958055 -6.526649 -4.977203 -11.680219 7.333750 23.714670 3.962380 4.678760 -23.827420 -30.352933 -1.756192 -1.314912 -25.065469 -3.318319 -2.403289 -172.209664 -56.054768 152.700052 -3.519539 3.397248 0.922590 0.055490 -0.115510 0.423920 31.527286 9.420393 4.149023 25.206695 -0.913678 -5.920808 30.950519 28.894925 5.261130 1.320393 -1.750945 -0.405220 0.524540 -0.301370 -0.601530 
-1.418280 15.026960 -1.558720 -11.461313 -35.604077 3.738156 -15.826647 11.131416 5.165912 10.260307 -8.873475 -46.650390 -6.872629 14.441679 51.483513 -0.250885 10.295195 0.957082 1.058300 0.441310 0.804500 18.027605 -8.170476 3.673903 -16.868387 8.077668 -23.237886 38.629384 -27.804890 43.338601 -2.137502 -10.857308 1.200636 0.531290 0.148230 -0.018920 -2.674777 -3.267252 -9.076145 -3.289043 6.385867 31.985519 1.757090 7.783756 0.016284 -0.616226 -6.791019 -5.979383 -12.730633 7.937325 25.732591 3.181810 5.506270 -23.058900 -30.444377 -3.372003 -0.850530 -25.127912 -2.427374 -3.932804 -169.769451 -58.016815 148.471876 -3.550270 3.228255 0.999720 0.046840 -0.169590 0.343960 31.345744 11.188575 5.449520 25.882859 -2.544895 -7.157009 30.387319 31.933572 5.915705 1.315152 -1.648155 -0.521020 0.563260 -0.203960 -0.668000 
-1.429400 14.944120 -1.568910 -12.055182 -36.345157 3.731883 -15.924015 10.860972 5.295880 11.124555 -9.309821 -48.709872 -5.651974 15.252367 55.407223 -0.076084 11.022386 0.732174 0.985530 0.349940 0.773790 18.020526 -7.690254 3.977086 -18.983418 8.754890 -27.698201 40.108031 -31.485047 47.717686 -2.389843 -11.798101 0.956746 0.463810 0.152650 -0.037060 -2.646059 -3.543495 -9.357139 -4.087993 6.494522 34.273547 1.979628 7.394508 -1.046853 -0.420660 -7.037195 -6.785753 -13.462455 9.007404 26.579247 3.637250 6.047650 -22.917580 -29.759885 -4.412528 -0.518606 -25.836993 -1.319814 -5.900745 -164.861595 -62.318051 142.138901 -3.531765 3.120791 1.030840 0.026020 -0.170940 0.314760 30.631816 12.405263 6.299739 26.387738 -3.687695 -7.912287 31.986461 34.427110 6.879787 1.337895 -1.612828 -0.543480 0.570540 -0.166670 -0.674390 
-1.453840 14.882190 -1.568280 -12.432208 -37.550414 2.952428 -15.999422 10.734121 5.302984 12.171336 -9.189280 -49.377636 -4.959189 16.355725 58.681654 0.132964 11.641955 0.509903 0.974570 0.348140 0.746120 18.010518 -7.279042 4.260603 -20.991863 9.400900 -31.454714 40.190316 -34.490435 52.325786 -2.637772 -12.627631 0.734870 0.418700 0.095840 -0.036490 -2.618122 -3.870944 -9.569695 -5.476025 7.013388 37.198539 2.727088 7.123740 -2.479507 -0.584418 -7.897382 -7.597990 -15.512036 10.713745 27.252935 5.689730 6.159890 -24.414570 -28.881730 -4.930692 -0.209691 -27.241009 0.500149 -8.265487 -155.988661 -67.511406 131.975102 -3.448648 3.031014 1.060650 -0.050720 -0.125000 0.295440 30.499713 13.606403 7.220055 26.726940 -5.373570 -8.926708 33.320868 37.299371 7.921000 1.369672 -1.619751 -0.494760 0.532000 -0.158790 -0.651890 
-1.458550 14.846950 -1.568710 -13.659819 -37.720865 2.631339 -16.035188 10.600180 5.315917 13.557638 -9.143365 -49.832896 -4.316929 16.983823 61.096599 0.315607 12.040578 0.347263 0.984780 0.363150 0.724960 18.029460 -6.925279 4.554942 -22.521428 9.716696 -35.326987 39.572061 -37.334622 56.906875 -2.875755 -13.448598 0.516773 0.368420 0.022440 0.017030 -2.682759 -4.112898 -9.782641 -5.137206 6.520399 40.831648 2.818639 6.483561 -4.279094 -0.565788 -8.980236 -8.422414 -18.291763 11.898409 27.927753 6.665240 5.586510 -25.176800 -28.897081 -5.940762 -0.303543 -27.911710 1.616222 -10.561440 -136.874060 -73.231789 112.281834 -3.419179 2.805664 1.057680 -0.109210 -0.071050 0.277620 30.860996 14.963933 8.391551 26.777467 -7.961005 -10.085207 35.478235 40.818602 9.349940 1.390666 -1.702206 -0.393270 0.430550 -0.161420 -0.615350 
-1.461340 14.813000 -1.577250 -14.480306 -36.591852 2.946005 -16.103762 10.338449 5.451447 14.643219 -9.930005 -51.492562 -3.479247 17.320073 63.739152 0.442468 12.434779 0.212743 0.984490 0.363250 0.719710 18.045529 -6.522784 4.824886 -24.924275 8.931696 -39.658255 39.377250 -39.460509 59.434415 -3.007297 -13.928413 0.393409 0.340310 -0.025400 0.025190 -2.693143 -4.358566 -10.010337 -4.860229 5.878829 43.124154 3.420870 5.703936 -4.987144 -0.555956 -9.552923 -9.362835 -20.163216 12.475844 28.462476 7.128900 4.868530 -25.963150 -28.287959 -7.101149 0.061868 -29.673351 0.025714 -9.401189 -97.343559 -78.943853 71.946361 -3.900072 2.038077 1.075760 -0.156040 -0.038620 0.259990 30.661321 16.141720 9.265580 27.779723 -10.388311 -11.582298 35.495519 44.180093 10.069663 1.382874 -1.722320 -0.355140 0.398440 -0.158270 -0.603350 
-1.450250 14.776230 -1.590100 -14.766118 -35.551159 3.891717 -16.201607 10.006343 5.674165 15.696495 -10.975858 -54.010808 -3.015831 17.705231 65.868395 0.544026 12.825303 0.106729 0.962610 0.323870 0.713140 18.052861 -6.095370 5.077281 -27.501951 7.631359 -44.358052 38.529344 -40.111506 60.701963 -3.018555 -14.144384 0.322534 0.316720 -0.028180 0.043760 -2.645795 -4.580922 -10.270126 -5.379421 5.353766 43.683560 3.972610 4.651619 -5.492755 -0.269447 -9.043083 -9.908306 -19.374763 12.148667 28.958548 6.561230 4.549490 -24.576450 -28.983066 -9.475517 0.605705 -29.437391 -0.164267 -10.538782 -56.340266 -75.662412 35.528248 -3.339916 3.337474 1.069880 -0.147290 -0.042570 0.253220 31.197482 17.592828 9.952286 28.476603 -11.737164 -12.486341 34.787724 44.930987 9.773084 1.360769 -1.746222 -0.350900 0.368060 -0.149540 -0.606280 
-1.439730 14.737460 -1.588690 -15.318338 -33.876998 6.304698 -16.283921 9.553586 6.017336 17.093717 -12.357402 -57.571617 -2.760350 17.847626 67.587404 0.643877 13.077271 0.034518 0.986650 0.375320 0.721090 18.086591 -5.739445 5.250933 -29.577528 5.607968 -48.723481 38.319171 -39.018418 58.767452 -2.865291 -13.817453 0.390554 0.337380 -0.038080 0.055740 -2.668450 -4.611260 -10.490689 -4.892539 3.798524 42.390514 3.875002 3.343923 -5.997405 -0.200876 -8.416877 -9.655199 -17.811391 11.692239 28.222948 5.631000 4.527060 -23.034170 -29.760339 -10.938383 0.134427 -29.322652 -1.652265 -11.061767 -32.196505 -64.873752 14.698794 -3.265403 3.308466 0.998720 -0.114390 -0.054580 0.254970 31.916953 17.730490 9.954036 28.989370 -12.206662 -12.687293 33.705283 43.945569 8.856972 1.359425 -1.787818 -0.305330 0.326530 -0.174030 -0.589440 
-1.439440 14.735500 -1.594840 -15.510796 -32.421244 7.443321 -16.295080 9.419561 6.242006 18.182469 -13.358366 -58.753728 -4.135688 18.131251 66.833146 0.688024 13.044490 0.073264 0.954290 0.361590 0.702740 18.108310 -5.706898 5.211020 -30.046055 4.319324 -50.114280 36.967606 -35.178115 54.860874 -2.547044 -12.938649 0.604175 0.315710 -0.019720 0.044050 -2.669971 -4.597353 -10.561970 -4.662027 2.691814 41.819040 3.755933 2.472937 -6.489366 -0.076158 -7.733870 -9.962559 -16.647549 11.038200 28.952034 4.778550 4.507490 -21.459610 -30.437413 -13.197599 0.175767 -28.700921 -3.785770 -10.000436 -18.895540 -49.987819 5.169739 -3.281737 3.153482 0.951530 -0.081520 -0.072730 0.254630 32.491671 18.845897 10.239983 30.655733 -12.156432 -13.338469 30.722477 41.441948 6.902496 1.366774 -1.742317 -0.295650 0.323730 -0.179030 -0.575690 
